<?xml version="1.0" encoding="UTF-8"?>
<svg xmlns="http://www.w3.org/2000/svg" xmlns:xlink="http://www.w3.org/1999/xlink" width="200px" height="200px" viewBox="0 0 200 200" version="1.1">
<g id="surface1">
<path style="fill-rule:evenodd;fill:rgb(0%,0%,0%);fill-opacity:1;stroke-width:1.5;stroke-linecap:round;stroke-linejoin:round;stroke:rgb(0%,0%,0%);stroke-opacity:1;stroke-miterlimit:4;" d="M 21.999902 9.999902 C 32.500195 11.000098 38.499609 17.999707 38.000391 39.000293 L 15.000293 39.000293 C 15.000293 30.000293 24.999609 32.499902 23.000098 17.999707 " transform="matrix(4.444444,0,0,4.444444,0,1.333333)"/>
<path style="fill-rule:evenodd;fill:rgb(0%,0%,0%);fill-opacity:1;stroke-width:1.5;stroke-linecap:round;stroke-linejoin:round;stroke:rgb(0%,0%,0%);stroke-opacity:1;stroke-miterlimit:4;" d="M 24.000293 17.999707 C 24.37998 20.909766 18.45 25.370215 15.999609 26.999707 C 12.999902 29.000098 13.180078 31.339746 11.000391 30.999609 C 9.958008 30.060059 12.410156 27.960352 11.000391 27.999902 C 10.000195 27.999902 11.190234 29.230371 10.000195 30.000293 C 9 30.000293 5.996777 30.999609 6.000293 26.000391 C 6.000293 24 11.999707 13.999805 11.999707 13.999805 C 11.999707 13.999805 13.890234 12.099609 14.000098 10.5 C 13.269727 9.505957 13.5 8.499609 13.5 7.500293 C 14.500195 6.500098 16.499707 9.999902 16.499707 9.999902 L 18.500098 9.999902 C 18.500098 9.999902 19.279687 8.008301 20.999707 7.000195 C 21.999902 7.000195 21.999902 9.999902 21.999902 9.999902 " transform="matrix(4.444444,0,0,4.444444,0,1.333333)"/>
<path style="fill-rule:evenodd;fill:rgb(100%,100%,100%);fill-opacity:1;stroke-width:1.5;stroke-linecap:round;stroke-linejoin:round;stroke:rgb(100%,100%,100%);stroke-opacity:1;stroke-miterlimit:4;" d="M 9.500098 25.500293 C 9.500098 25.77627 9.275977 26.000391 9 26.000391 C 8.724023 26.000391 8.499902 25.77627 8.499902 25.500293 C 8.499902 25.223437 8.724023 25.000195 9 25.000195 C 9.275977 25.000195 9.500098 25.223437 9.500098 25.500293 Z M 9.500098 25.500293 " transform="matrix(4.444444,0,0,4.444444,0,1.333333)"/>
<path style="fill-rule:evenodd;fill:rgb(100%,100%,100%);fill-opacity:1;stroke-width:1.5;stroke-linecap:round;stroke-linejoin:round;stroke:rgb(100%,100%,100%);stroke-opacity:1;stroke-miterlimit:4;" d="M 14.999522 15.499938 C 15.000062 16.328802 14.776518 16.999827 14.499722 17.0003 C 14.223688 17.000334 14.000253 16.328579 13.999713 15.499714 C 13.999613 14.671611 14.223918 14.000147 14.499953 14.000113 C 14.775987 14.00008 15.000183 14.671395 14.999522 15.499938 Z M 14.999522 15.499938 " transform="matrix(3.848889,2.222222,-2.222222,3.848889,43.08,-21.657778)"/>
<path style=" stroke:none;fill-rule:evenodd;fill:rgb(100%,100%,100%);fill-opacity:1;" d="M 109.109375 47.554688 L 107.109375 54 L 109.332031 54.667969 C 123.332031 59.109375 134.445312 65.734375 144.445312 84.667969 C 154.445312 103.601562 158.890625 130.488281 156.667969 174.667969 L 156.445312 176.890625 L 166.445312 176.890625 L 166.667969 174.667969 C 168.890625 129.957031 162.753906 99.777344 152.222656 79.820312 C 141.6875 59.867188 126.488281 50.3125 111.378906 48 Z M 109.109375 47.554688 "/>
</g>
</svg>
