<?xml version="1.0" encoding="UTF-8"?>
<svg xmlns="http://www.w3.org/2000/svg" xmlns:xlink="http://www.w3.org/1999/xlink" width="200px" height="200px" viewBox="0 0 200 200" version="1.1">
<g id="surface1">
<path style="fill-rule:nonzero;fill:rgb(0%,0%,0%);fill-opacity:1;stroke-width:1.5;stroke-linecap:round;stroke-linejoin:miter;stroke:rgb(0%,0%,0%);stroke-opacity:1;stroke-miterlimit:4;" d="M 22.5 9 C 20.29043 9 18.500098 10.790332 18.500098 12.999902 C 18.500098 13.890234 18.790137 14.710254 19.279687 15.37998 C 17.330273 16.499707 15.999609 18.589746 15.999609 20.999707 C 15.999609 23.02998 16.940039 24.839648 18.40957 26.029687 C 15.409863 27.089648 11.000391 31.57998 11.000391 39.499805 L 33.999609 39.499805 C 33.999609 31.57998 29.590137 27.089648 26.59043 26.029687 C 28.059961 24.839648 29.000391 23.02998 29.000391 20.999707 C 29.000391 18.589746 27.669727 16.499707 25.720312 15.37998 C 26.209863 14.710254 26.499902 13.890234 26.499902 12.999902 C 26.499902 10.790332 24.70957 9 22.5 9 Z M 22.5 9 " transform="matrix(4.444444,0,0,4.444444,0,0)"/>
</g>
</svg>
