<?xml version="1.0" encoding="UTF-8"?>
<svg xmlns="http://www.w3.org/2000/svg" xmlns:xlink="http://www.w3.org/1999/xlink" width="200px" height="200px" viewBox="0 0 200 200" version="1.1">
<g id="surface1">
<path style="fill-rule:evenodd;fill:rgb(100%,100%,100%);fill-opacity:1;stroke-width:1.5;stroke-linecap:butt;stroke-linejoin:round;stroke:rgb(0%,0%,0%);stroke-opacity:1;stroke-miterlimit:4;" d="M 9 36.000293 C 12.389941 35.02998 19.110059 36.430078 22.5 33.999902 C 25.889941 36.430078 32.610059 35.02998 36 36.000293 C 36 36.000293 37.649707 36.539941 38.999707 37.999805 C 38.320312 38.970117 37.35 38.990332 36 38.499902 C 32.610059 37.52959 25.889941 38.95957 22.5 37.499707 C 19.110059 38.95957 12.389941 37.52959 9 38.499902 C 7.65 38.990332 6.679687 38.970117 6.000293 37.999805 C 7.350293 36.539941 9 36.000293 9 36.000293 Z M 9 36.000293 " transform="matrix(4.444444,0,0,4.444444,0,2.666667)"/>
<path style="fill-rule:evenodd;fill:rgb(100%,100%,100%);fill-opacity:1;stroke-width:1.5;stroke-linecap:butt;stroke-linejoin:round;stroke:rgb(0%,0%,0%);stroke-opacity:1;stroke-miterlimit:4;" d="M 15.000293 32.000391 C 17.499902 34.5 27.500098 34.5 29.999707 32.000391 C 30.499805 30.500098 29.999707 30 29.999707 30 C 29.999707 27.500391 27.500098 26.000098 27.500098 26.000098 C 33.000293 24.499805 33.500391 14.499609 22.5 10.499707 C 11.499609 14.499609 11.999707 24.499805 17.499902 26.000098 C 17.499902 26.000098 15.000293 27.500391 15.000293 30 C 15.000293 30 14.500195 30.500098 15.000293 32.000391 Z M 15.000293 32.000391 " transform="matrix(4.444444,0,0,4.444444,0,2.666667)"/>
<path style="fill-rule:evenodd;fill:rgb(100%,100%,100%);fill-opacity:1;stroke-width:1.5;stroke-linecap:butt;stroke-linejoin:round;stroke:rgb(0%,0%,0%);stroke-opacity:1;stroke-miterlimit:4;" d="M 24.999609 8.000098 C 24.999609 9.380859 23.880762 10.499707 22.5 10.499707 C 21.119238 10.499707 20.000391 9.380859 20.000391 8.000098 C 20.000391 6.619336 21.119238 5.499609 22.5 5.499609 C 23.880762 5.499609 24.999609 6.619336 24.999609 8.000098 Z M 24.999609 8.000098 " transform="matrix(4.444444,0,0,4.444444,0,2.666667)"/>
<path style="fill:none;stroke-width:1.5;stroke-linecap:round;stroke-linejoin:miter;stroke:rgb(0%,0%,0%);stroke-opacity:1;stroke-miterlimit:4;" d="M 17.499902 26.000098 L 27.500098 26.000098 M 15.000293 30 L 29.999707 30 M 22.5 15.499805 L 22.5 20.499902 M 20.000391 18.000293 L 24.999609 18.000293 " transform="matrix(4.444444,0,0,4.444444,0,2.666667)"/>
</g>
</svg>
