<?xml version="1.0" encoding="UTF-8"?>
<svg xmlns="http://www.w3.org/2000/svg" xmlns:xlink="http://www.w3.org/1999/xlink" width="200px" height="200px" viewBox="0 0 200 200" version="1.1">
<g id="surface1">
<path style="fill-rule:evenodd;fill:rgb(100%,100%,100%);fill-opacity:1;stroke-width:1.5;stroke-linecap:butt;stroke-linejoin:round;stroke:rgb(0%,0%,0%);stroke-opacity:1;stroke-miterlimit:4;" d="M 9 39.000293 L 36 39.000293 L 36 35.999707 L 9 35.999707 Z M 9 39.000293 " transform="matrix(4.444444,0,0,4.444444,0,1.333333)"/>
<path style="fill-rule:evenodd;fill:rgb(100%,100%,100%);fill-opacity:1;stroke-width:1.5;stroke-linecap:butt;stroke-linejoin:round;stroke:rgb(0%,0%,0%);stroke-opacity:1;stroke-miterlimit:4;" d="M 11.999707 35.999707 L 11.999707 31.999805 L 33.000293 31.999805 L 33.000293 35.999707 Z M 11.999707 35.999707 " transform="matrix(4.444444,0,0,4.444444,0,1.333333)"/>
<path style="fill-rule:evenodd;fill:rgb(100%,100%,100%);fill-opacity:1;stroke-width:1.5;stroke-linecap:butt;stroke-linejoin:round;stroke:rgb(0%,0%,0%);stroke-opacity:1;stroke-miterlimit:4;" d="M 11.000391 13.999805 L 11.000391 8.999707 L 15.000293 8.999707 L 15.000293 11.000098 L 20.000391 11.000098 L 20.000391 8.999707 L 24.999609 8.999707 L 24.999609 11.000098 L 29.999707 11.000098 L 29.999707 8.999707 L 33.999609 8.999707 L 33.999609 13.999805 " transform="matrix(4.444444,0,0,4.444444,0,1.333333)"/>
<path style="fill-rule:evenodd;fill:rgb(100%,100%,100%);fill-opacity:1;stroke-width:1.5;stroke-linecap:round;stroke-linejoin:round;stroke:rgb(0%,0%,0%);stroke-opacity:1;stroke-miterlimit:4;" d="M 33.999609 13.999805 L 30.999902 17.000391 L 14.000098 17.000391 L 11.000391 13.999805 " transform="matrix(4.444444,0,0,4.444444,0,1.333333)"/>
<path style="fill-rule:evenodd;fill:rgb(100%,100%,100%);fill-opacity:1;stroke-width:1.5;stroke-linecap:butt;stroke-linejoin:miter;stroke:rgb(0%,0%,0%);stroke-opacity:1;stroke-miterlimit:4;" d="M 30.999902 17.000391 L 30.999902 29.500195 L 14.000098 29.500195 L 14.000098 17.000391 " transform="matrix(4.444444,0,0,4.444444,0,1.333333)"/>
<path style="fill-rule:evenodd;fill:rgb(100%,100%,100%);fill-opacity:1;stroke-width:1.5;stroke-linecap:round;stroke-linejoin:round;stroke:rgb(0%,0%,0%);stroke-opacity:1;stroke-miterlimit:4;" d="M 30.999902 29.500195 L 32.500195 31.999805 L 12.499805 31.999805 L 14.000098 29.500195 " transform="matrix(4.444444,0,0,4.444444,0,1.333333)"/>
<path style="fill:none;stroke-width:1.5;stroke-linecap:round;stroke-linejoin:miter;stroke:rgb(0%,0%,0%);stroke-opacity:1;stroke-miterlimit:4;" d="M 11.000391 13.999805 L 33.999609 13.999805 " transform="matrix(4.444444,0,0,4.444444,0,1.333333)"/>
</g>
</svg>
